<svg width="424" height="357" viewBox="0 0 424 357" fill="none" xmlns="http://www.w3.org/2000/svg">
<mask id="mask0_73_6789" style="mask-type:luminance" maskUnits="userSpaceOnUse" x="0" y="0" width="424" height="357">
<rect x="0.641602" y="0.176025" width="423.108" height="356.648" fill="white"/>
</mask>
<g mask="url(#mask0_73_6789)">
<circle cx="216.583" cy="178.5" r="178.324" fill="#F1F0FF"/>
<rect x="206.202" y="100.757" width="109.347" height="169.327" fill="white"/>
<path d="M184.286 204.107H296.402" stroke="black"/>
<path d="M184.286 215.18H296.402" stroke="black"/>
<path d="M184.286 226.253H296.402" stroke="black"/>
<path d="M184.286 237.326H296.402" stroke="black"/>
<ellipse cx="260.876" cy="150.125" rx="28.606" ry="28.606" fill="#F2F2F2"/>
<rect opacity="0.7" x="296.402" y="160.968" width="45.215" height="41.986" fill="#98B9F2"/>
<path d="M308.141 182.126L314.42 179.666V180.633L309.285 182.572L314.42 184.516V185.483L308.141 183.018V182.126ZM319.979 177.491H320.795L318.292 185.381H317.476L319.979 177.491ZM330.028 183.029L323.75 185.483V184.516L328.879 182.572L323.75 180.633V179.666L330.028 182.126V183.029Z" fill="white"/>
<rect x="17.2656" y="17.478" width="244.071" height="160.561" stroke="black"/>
<path d="M17.2656 26.0139H261.337" stroke="black"/>
<rect x="35.0288" y="40.3159" width="73.36" height="73.36" stroke="black"/>
<path d="M122.46 46.7761H234.576" stroke="black"/>
<path d="M122.46 57.8491H234.576" stroke="black"/>
<path d="M122.46 68.9221H234.576" stroke="black"/>
<path d="M122.46 79.9951H234.576" stroke="black"/>
<path opacity="0.44" fill-rule="evenodd" clip-rule="evenodd" d="M71.7085 59.6941L51.7305 94.2941H91.6865L71.7085 59.6941Z" fill="#918EF4"/>
<ellipse cx="22.5716" cy="21.8609" rx="2.076" ry="2.076" fill="#AB8DE5"/>
<circle cx="29.7225" cy="21.8609" r="2.076" fill="#73E5E2"/>
<circle cx="36.8739" cy="21.8609" r="2.076" fill="#50B89D"/>
<path fill-rule="evenodd" clip-rule="evenodd" d="M124.766 148.395L131.687 142.282H124.628L124.766 148.395Z" fill="#AB8DE5"/>
<path fill-rule="evenodd" clip-rule="evenodd" d="M117.847 131.208C117.847 127.959 118.995 125.186 121.293 122.889C123.59 120.592 126.363 119.443 129.612 119.443H159.602C162.85 119.443 165.624 120.592 167.921 122.889C170.218 125.186 171.367 127.959 171.367 131.208C171.367 134.457 170.218 137.23 167.921 139.527C165.624 141.824 162.85 142.973 159.602 142.973H129.612C126.363 142.973 123.59 141.824 121.293 139.527C118.995 137.23 117.847 134.457 117.847 131.208Z" fill="#AB8DE5"/>
<circle cx="137.456" cy="131.208" r="2.076" fill="white"/>
<ellipse cx="144.607" cy="131.208" rx="2.076" ry="2.076" fill="white"/>
<ellipse cx="151.758" cy="131.208" rx="2.076" ry="2.076" fill="white"/>
<path fill-rule="evenodd" clip-rule="evenodd" d="M343.924 79.187L337.003 73.074H344.062L343.924 79.187Z" fill="#98B9F2"/>
<path fill-rule="evenodd" clip-rule="evenodd" d="M350.845 62.0011C350.845 65.2499 349.696 68.0229 347.399 70.3202C345.102 72.6175 342.329 73.7661 339.08 73.7661H309.09C305.841 73.7661 303.068 72.6175 300.771 70.3202C298.473 68.0229 297.325 65.2499 297.325 62.0011C297.325 58.7523 298.473 55.9792 300.771 53.682C303.068 51.3847 305.841 50.2361 309.09 50.2361L339.08 50.2361C342.329 50.2361 345.102 51.3847 347.399 53.682C349.696 55.9792 350.845 58.7523 350.845 62.0011Z" fill="#98B9F2"/>
<ellipse cx="331.236" cy="62.001" rx="2.076" ry="2.076" fill="white"/>
<ellipse cx="324.084" cy="62.001" rx="2.076" ry="2.076" fill="white"/>
<ellipse cx="316.932" cy="62.001" rx="2.076" ry="2.076" fill="white"/>
<ellipse cx="340.233" cy="19.785" rx="2.076" ry="2.076" fill="#918EF4"/>
<ellipse cx="344.616" cy="28.3201" rx="2.076" ry="2.076" fill="#918EF4"/>
<ellipse cx="296.863" cy="112.523" rx="3.23" ry="3.23" fill="#918EF4"/>
<ellipse cx="315.78" cy="123.596" rx="3.23" ry="3.23" fill="#918EF4"/>
<ellipse cx="25.1099" cy="127.287" rx="3.23" ry="3.23" fill="#F98B67"/>
<path fill-rule="evenodd" clip-rule="evenodd" d="M304.337 274.814V274.353L303.23 272.969L300.669 269.859L297.947 266.565C297.947 266.565 295.326 264.752 294.653 264.438C292.25 263.195 289.597 262.512 286.893 262.438C285.117 262.438 278.477 262.706 278.464 263.822C278.464 265.478 287.764 271.749 294.58 274.794C297.573 274.814 304.337 274.814 304.337 274.814Z" fill="#1F161E"/>
<path fill-rule="evenodd" clip-rule="evenodd" d="M302.93 274.814C293.467 267.533 274.149 227.822 279.104 213.104C289.651 218.479 301.223 237.013 306.681 252.663C306.974 253.682 307.21 254.717 307.387 255.763L309.602 265.913L310.137 274.832L302.93 274.814Z" fill="#6F9CEB"/>
<path fill-rule="evenodd" clip-rule="evenodd" d="M309.39 274.814C306.197 272.221 305.178 264.544 305.15 261.679C305.099 256.332 305.92 252.391 310.493 246.509C315.066 240.627 313.847 230.868 319.919 224.284C325.991 217.7 330.014 215.864 337.219 215.864C344.424 215.864 346.719 227.546 346.677 230.485C346.594 242.342 339.124 244.022 334.566 249.678C331.258 253.784 331 257.143 329.998 259.063C324.628 269.407 320.263 273.297 317.033 274.815" fill="#918EF4"/>
<path d="M311.152 273.955C311.244 253.733 332.552 223.355 337.109 218.806" stroke="white" stroke-width="0.4" stroke-linecap="round" stroke-linejoin="round"/>
<path d="M312.3 264.765C309.942 262.195 307.8 254.91 308.12 253.018" stroke="white" stroke-width="0.4" stroke-linecap="round" stroke-linejoin="round"/>
<path d="M306.262 273.069C302.921 267.149 287.072 238.285 281.162 217.025" stroke="white" stroke-width="0.4" stroke-linecap="round" stroke-linejoin="round"/>
<path fill-rule="evenodd" clip-rule="evenodd" d="M317.053 274.813H326.982L318.682 305.726H296.471L288.3 274.813H317.053" fill="#B37361"/>
<path d="M281.71 264.446C286.55 264.778 292.64 265 296.936 267.929" stroke="white" stroke-width="0.4" stroke-linecap="round" stroke-linejoin="round"/>
<path fill-rule="evenodd" clip-rule="evenodd" d="M358.432 148.28C357.265 153.849 348.785 222.927 351.557 239.426C354.329 255.925 399.541 290.496 401.52 291.101C403.827 289.408 407.22 283.857 407.22 283.857C407.22 283.857 374.07 245.429 373.439 243.888C372.807 242.347 380.701 153.356 380.701 153.356L358.432 148.28Z" fill="#7472C1"/>
<path fill-rule="evenodd" clip-rule="evenodd" d="M412.421 160.852L378.597 298.81H367.206L378.75 154.891L412.421 160.852Z" fill="#AB8DE5"/>
<path fill-rule="evenodd" clip-rule="evenodd" d="M388.399 81.864C393.068 81.864 417.425 82.653 421.826 91.225C426.227 99.797 422.08 139.425 419.344 140.957C417.868 141.783 417.466 140.98 417.037 142.657C416.608 144.334 412.423 160.849 412.423 160.849C409.765 160.923 371.023 155.086 358.441 148.263C358.515 146.363 359.124 141.435 359.124 141.056C357.454 141.739 355.433 141.882 354.879 141.056C349.97 133.623 357.287 94.872 362.538 87.074C364.769 83.733 380.899 81.887 388.399 81.864Z" fill="#6F9CEB"/>
<path fill-rule="evenodd" clip-rule="evenodd" d="M404.435 142.028C405.579 142.028 415.43 148.949 414.585 152.349C415.277 149.618 417.455 141.179 417.455 141.179C416.519 141.359 405.275 142.042 404.435 142.028Z" fill="#1F161E"/>
<path fill-rule="evenodd" clip-rule="evenodd" d="M394.426 86.3859C394.426 87.8859 382.564 87.8859 382.564 86.3859V71.1599H394.426V86.3859Z" fill="#F8CDBA"/>
<path fill-rule="evenodd" clip-rule="evenodd" d="M387.622 74.7629C388.545 74.7629 394.427 77.3629 394.427 78.8139V71.1599C392.96 71.1599 387.622 74.7629 387.622 74.7629Z" fill="#1F161E"/>
<circle cx="385.997" cy="64.3361" r="11.539" fill="#F8CDBA"/>
<path fill-rule="evenodd" clip-rule="evenodd" d="M382.094 47.468C376.17 47.468 372.479 51.187 372.479 55.953C372.479 59.916 373.44 62.159 374.57 62.726C375.285 58.878 376.84 57.097 378.127 56.331C379.127 57.097 380.84 58.952 383.127 59.524C385.414 60.096 391.372 59.985 396.184 63.483C397.757 62.053 399.326 60.193 399.326 58.002C399.326 55.811 398.357 53.061 392.659 51.473C388.896 50.425 388.37 47.468 382.094 47.468Z" fill="#1F161E"/>
<ellipse cx="375.215" cy="66.7119" rx="2.021" ry="1.052" fill="#FA9E9F"/>
<ellipse cx="387.926" cy="66.7119" rx="2.021" ry="1.052" fill="#FA9E9F"/>
<path d="M380.152 64.53C379.774 65.07 377.845 67.335 379.88 68.249" stroke="#1F161E" stroke-linecap="round"/>
<path d="M383.954 70.892C384.789 70.6865 385.517 70.1743 385.993 69.457" stroke="#1F161E" stroke-linecap="round"/>
<circle cx="396.665" cy="65.665" r="2.667" fill="#F8CDBA"/>
<path d="M404.702 104.569C404.494 107.116 403.682 119.702 403.987 121.359C400.116 122.706 364.672 139.514 358.541 141.359" stroke="#1F161E" stroke-linecap="round"/>
<path d="M363.537 100.596C362.72 103.447 359.971 116.389 361.904 122.396" stroke="#1F161E" stroke-linecap="round"/>
<path d="M372.585 135.472C374.431 136.772 392.12 144.598 416.578 141.645" stroke="#1F161E" stroke-linecap="round"/>
<path fill-rule="evenodd" clip-rule="evenodd" d="M370.894 122.401C372.08 122.59 368.213 119.501 366.022 120.652C363.831 121.803 360.878 127.001 361.482 128.205C361.646 128.648 362.003 128.992 362.452 129.141C362.9 129.29 363.392 129.227 363.789 128.971C364.383 128.588 368.826 122.068 370.894 122.401Z" fill="#F8CDBA"/>
<path fill-rule="evenodd" clip-rule="evenodd" d="M406.843 284.424C407.475 284.885 413.081 288.678 413.127 291.068C413.173 293.458 407.904 301.38 406.843 301.606C405.782 301.832 405.025 300.937 405.025 299.336C405.025 297.735 407.025 294.93 406.76 293.684C406.495 292.438 403.904 290.159 402.575 290.118" fill="#EBEBEB" fill-opacity="0.25098"/>
<path fill-rule="evenodd" clip-rule="evenodd" d="M377.514 298.81C377.514 299.91 378.151 306.801 376.876 307.442C375.602 308.083 361.549 308.462 360.913 307.825C360.276 307.188 359.889 305.846 360.452 305.463C361.014 305.08 366.452 303.991 367.188 303.484C368.273 302.183 368.774 300.492 368.572 298.81" fill="#EBEBEB" fill-opacity="0.25098"/>
<rect x="12.6426" y="247.633" width="89.222" height="45.257" fill="#B37361"/>
<path fill-rule="evenodd" clip-rule="evenodd" d="M145.821 226.423C146.209 228.73 152.788 281.47 153.854 282.342C154.92 283.214 166.237 285.147 167.206 283.698C167.4 281.391 167.667 244.61 168.267 241.32" fill="#1F161E"/>
<path fill-rule="evenodd" clip-rule="evenodd" d="M18.5256 215.419C13.9626 213.172 23.4766 257.714 48.5156 257.714C73.5546 257.714 115.702 219.572 122.526 219.572C137.59 219.572 173.25 249.147 176.046 249.147C178.187 247.006 182.468 243.26 182.468 241.765C182.468 240.27 148.326 184.092 122.779 184.092C112.874 184.105 28.8286 220.508 18.5256 215.419Z" fill="#7472C1"/>
<path fill-rule="evenodd" clip-rule="evenodd" d="M32.6167 216.178C37.6227 215.043 43.8517 212.104 49.3647 209.1C34.3647 214 22.0737 217.174 18.5257 215.421C16.1077 214.231 17.6397 226.153 23.3257 237.637C22.2947 235.415 20.8277 218.87 32.6167 216.178Z" fill="#1F161E"/>
<path fill-rule="evenodd" clip-rule="evenodd" d="M43.6517 138.036C47.5967 138.142 68.1327 137.536 73.7617 142.899C77.9367 146.876 90.9207 181.078 92.9227 193.088C84.2027 197.522 21.3027 227.636 1.8417 214.395C1.4127 204.106 3.4107 163.205 16.1417 141.755C20.7957 138.654 39.8597 137.939 43.6517 138.036Z" fill="white"/>
<path fill-rule="evenodd" clip-rule="evenodd" d="M51.6528 128.25H39.6528V141.141C39.6528 144.371 51.6528 144.341 51.6528 141.141V128.25Z" fill="#F8CDBA"/>
<path fill-rule="evenodd" clip-rule="evenodd" d="M39.6568 136.033C39.6568 134.603 43.6198 131.009 46.0698 131.133C46.1298 129.541 40.4698 127.253 40.4698 127.253L39.6528 129.453L39.6568 136.033Z" fill="#1F161E"/>
<path fill-rule="evenodd" clip-rule="evenodd" d="M64.2159 128.25C64.4854 127.001 64.6215 125.728 64.6219 124.45C64.6219 114.936 57.1889 107.222 48.0119 107.222C38.8349 107.222 31.4019 114.936 31.4019 124.45C31.4019 125.723 31.5376 126.997 31.8068 128.246L64.2159 128.25Z" fill="#1F161E"/>
<path fill-rule="evenodd" clip-rule="evenodd" d="M59.8376 116.637C57.8026 116.328 55.7726 114.727 54.3566 113.68C46.2826 119.595 41.1106 119.67 40.5516 119.67C39.9926 119.67 37.7186 122.937 36.6716 123.306L36.5796 123.251C37.4139 127.953 40.8352 131.78 45.4152 133.133C49.9952 134.487 54.9468 133.134 58.203 129.641C61.4592 126.147 62.4604 121.113 60.7886 116.639C60.4731 116.678 60.154 116.678 59.8386 116.639L59.8376 116.637Z" fill="#F8CDBA"/>
<circle cx="39.0157" cy="104.471" r="4.9" fill="#1F161E"/>
<path d="M41.1977 119.41C40.0953 119.459 39.2266 120.366 39.2266 121.47C39.2266 122.573 40.0953 123.481 41.1977 123.53" stroke="#1F161E" stroke-linecap="round"/>
<path d="M56.9038 119.673C57.5038 120.48 59.0628 121.897 56.9038 123.396" stroke="#1F161E" stroke-linecap="round"/>
<path d="M50.3569 124.476C50.3018 125.533 50.9275 126.508 51.9119 126.898" stroke="#1F161E" stroke-linecap="round"/>
<ellipse cx="46.3375" cy="123.632" rx="1.901" ry="0.987" fill="#FA9E9F"/>
<ellipse cx="60.4698" cy="123.632" rx="1.901" ry="0.987" fill="#FA9E9F"/>
<path fill-rule="evenodd" clip-rule="evenodd" d="M73.3286 173.687L86.1506 170.387C87.3826 172.482 93.3806 193.064 93.3806 193.064L73.5886 201.407C73.8456 197.508 74.6246 179.653 73.3286 173.687Z" fill="#F8CDBA"/>
<path d="M28.3719 170.462C27.9338 173.915 27.2399 177.331 26.2959 180.682" stroke="#1F161E" stroke-linecap="round"/>
<path d="M73.3289 173.688C73.0199 171.247 71.2109 157.494 68.1289 150.254" stroke="#1F161E" stroke-linecap="round"/>
<path fill-rule="evenodd" clip-rule="evenodd" d="M73.3286 173.687L86.1506 170.387C87.3826 172.482 93.3806 193.064 93.3806 193.064L73.5886 201.407C73.8456 197.508 74.6246 179.653 73.3286 173.687Z" fill="#F8CDBA"/>
<path fill-rule="evenodd" clip-rule="evenodd" d="M176.429 248.057C176.715 248.518 180.535 253.206 181.887 253.257C183.239 253.308 191.447 247.748 191.087 246.557C190.727 245.366 185.578 246.142 184.692 245.722C183.386 244.899 182.293 243.778 181.504 242.451" fill="#1F161E"/>
<path fill-rule="evenodd" clip-rule="evenodd" d="M156.243 282.832C156.143 283.344 155.625 289.384 156.561 290.362C157.497 291.34 167.261 293.038 167.833 291.926C168.405 290.814 164.142 287.801 163.814 286.888C163.452 285.39 163.452 283.828 163.814 282.33" fill="#1F161E"/>
<path fill-rule="evenodd" clip-rule="evenodd" d="M140.93 194.357H97.4819L107.826 166.946H151.274L140.93 194.357Z" fill="#969696"/>
<rect x="61.2778" y="193.324" width="43.448" height="1.033" fill="#969696"/>
<path fill-rule="evenodd" clip-rule="evenodd" d="M26.2957 180.686C25.4607 183.805 21.4047 197.186 23.0567 199.492C24.7087 201.798 66.0757 196.571 77.1447 193.125C79.9637 192.202 82.0537 189.785 83.3037 189.471C86.6286 188.907 89.844 190.94 90.7597 194.186C86.3437 196.327 22.5217 228.91 1.8437 214.409C-2.0643 211.609 4.7917 177.466 5.1057 175.745C8.5967 176.165 26.2957 180.686 26.2957 180.686Z" fill="#F8CDBA"/>
<path d="M73.9199 193.956C75.1659 193.656 76.2549 193.37 77.1499 193.093C79.9689 192.17 82.0589 189.753 83.3089 189.439C86.6339 188.875 89.8492 190.908 90.7649 194.154" stroke="#1F161E" stroke-linecap="round"/>
</g>
</svg>
